<?xml version="1.0" standalone="no"?>
<!DOCTYPE svg PUBLIC "-//W3C//DTD SVG 20010904//EN"
 "http://www.w3.org/TR/2001/REC-SVG-20010904/DTD/svg10.dtd">
<svg version="1.0" xmlns="http://www.w3.org/2000/svg"
 width="194.000000pt" height="194.000000pt" viewBox="0 0 194.000000 194.000000"
 preserveAspectRatio="xMidYMid meet">
<metadata>
Created by potrace 1.11, written by Peter Selinger 2001-2013
</metadata>
<g transform="translate(0.000000,194.000000) scale(0.100000,-0.100000)"
fill="#000000" stroke="none">
<path d="M666 1924 c-217 -43 -425 -222 -541 -467 -87 -182 -111 -401 -67
-622 24 -122 24 -121 72 -220 27 -54 59 -94 142 -178 l107 -107 -49 -73 c-27
-40 -58 -81 -69 -91 -17 -15 -21 -31 -21 -80 0 -93 3 -94 108 -45 86 39 92 44
92 72 0 27 -2 29 -27 22 -57 -13 -98 -40 -115 -75 l-18 -35 0 64 c0 60 2 66
41 112 79 94 123 237 139 444 6 77 15 144 20 149 14 14 12 38 -2 34 -15 -5
-24 -42 -38 -158 -5 -47 -15 -116 -21 -154 l-11 -68 -29 43 c-15 23 -34 62
-40 85 -8 26 -20 45 -31 47 -10 3 -26 19 -35 36 -15 26 -24 31 -57 31 -46 0
-40 14 7 15 44 2 92 49 101 99 14 73 67 168 128 229 39 40 58 67 58 83 0 14 5
34 10 45 9 16 -9 54 -100 218 -60 110 -110 206 -110 212 0 21 15 -1 68 -101
139 -263 165 -303 197 -306 17 -2 37 -12 47 -24 9 -11 23 -20 32 -20 14 0 20
-12 17 -32 0 -5 15 -8 34 -8 l35 0 0 -134 0 -133 -66 -2 c-37 -1 -70 -4 -75
-7 -5 -3 -9 -83 -9 -177 0 -169 0 -172 -22 -182 -13 -6 -23 -19 -24 -30 -3
-77 -2 -75 -29 -65 -25 9 -25 9 -24 -43 1 -45 2 -48 8 -18 10 56 31 51 31 -8
0 -28 5 -51 10 -51 6 0 10 -21 10 -46 0 -25 6 -58 14 -72 7 -15 22 -49 33 -77
l19 -50 78 -1 c85 0 96 7 112 69 5 23 3 29 -14 34 -20 5 -20 6 8 30 29 24 30
29 30 106 l1 82 30 -57 29 -58 80 0 80 0 29 58 30 57 1 -41 c1 -98 11 -135 44
-155 30 -18 29 -21 -4 -23 -19 -1 -15 -51 6 -81 12 -17 26 -20 90 -21 71 -1
76 0 88 25 7 14 16 39 20 55 4 15 14 35 21 43 10 9 15 35 15 69 0 30 5 54 10
54 6 0 10 23 10 50 0 37 4 50 14 50 10 0 16 -13 19 -37 3 -36 4 -35 5 8 2 44
1 46 -23 41 -23 -4 -25 -1 -26 29 -2 60 -4 64 -26 74 -22 9 -23 14 -25 185
l-3 175 -75 5 c-41 3 -74 8 -72 13 1 4 2 64 2 133 l0 126 38 -4 c29 -2 37 1
37 13 0 23 58 69 90 71 20 2 34 13 51 40 13 21 24 39 24 42 0 2 20 39 43 82
24 44 63 115 87 159 45 85 57 102 64 94 3 -3 -16 -43 -42 -89 -179 -317 -185
-330 -171 -357 7 -14 12 -38 11 -54 -2 -18 1 -29 9 -29 22 0 113 -104 142
-163 15 -30 30 -78 34 -106 4 -32 11 -51 19 -51 7 0 20 -10 28 -22 13 -18 24
-22 56 -19 24 1 40 -2 40 -8 0 -6 -18 -11 -39 -11 -34 0 -42 -4 -53 -27 -7
-16 -23 -32 -36 -38 -12 -5 -22 -18 -22 -28 0 -18 -38 -98 -62 -131 -13 -16
-15 -12 -25 50 -6 38 -11 78 -11 89 0 11 -7 62 -15 114 -15 94 -28 124 -42
101 -4 -7 -3 -15 3 -19 6 -4 16 -69 22 -146 18 -217 58 -346 139 -452 46 -59
49 -68 49 -118 -1 -60 -13 -73 -23 -26 -8 36 -17 44 -79 65 -65 21 -66 21 -66
-12 0 -25 8 -31 92 -70 53 -24 96 -38 101 -33 4 4 9 35 10 67 2 57 0 61 -46
118 -46 56 -87 125 -87 144 0 5 24 28 53 51 139 113 222 255 258 441 46 239
22 454 -74 645 -86 173 -224 318 -375 394 -53 27 -192 70 -227 71 -6 0 -10
-26 -10 -57 -4 -935 -5 -1017 -19 -997 -10 13 -11 23 -4 31 7 8 5 22 -6 44 -9
18 -16 48 -16 68 0 81 -33 106 -46 35 -3 -19 -13 -38 -21 -42 -11 -7 -7 -16
20 -45 30 -34 34 -43 31 -88 -3 -61 -23 -92 -25 -39 -1 19 0 46 0 60 4 54 -17
65 -136 70 -84 4 -107 8 -105 19 1 7 -4 18 -12 25 -9 6 -17 28 -19 48 -2 21
-7 41 -12 45 -4 5 -4 2 0 -6 6 -11 4 -13 -8 -8 -13 5 -17 -3 -22 -37 -4 -23
-5 -49 -4 -57 2 -8 -4 -28 -13 -45 -12 -22 -14 -34 -7 -41 8 -8 7 -18 -1 -33
-6 -12 -13 -20 -16 -18 -2 2 -4 233 -4 513 -1 290 -5 516 -11 526 -6 12 -5 19
4 22 20 9 -4 6 -77 -9z m49 -162 c0 -128 -3 -151 -18 -166 -18 -18 -23 -56 -8
-56 5 0 14 12 19 28 9 24 10 21 11 -28 1 -78 -9 -130 -25 -130 -22 0 -16 -17
7 -23 15 -4 20 -11 15 -22 -3 -9 -6 -35 -6 -56 0 -24 -4 -38 -10 -34 -6 3 -10
-4 -10 -17 0 -45 -12 -49 -66 -23 -44 21 -54 32 -91 103 -33 60 -40 81 -31 90
9 9 8 12 -5 12 -9 0 -17 7 -17 15 0 8 -5 15 -10 15 -6 0 -14 8 -18 18 -4 9
-33 64 -66 120 l-58 104 33 34 c18 19 39 32 46 30 7 -3 12 -1 10 5 -1 6 9 18
23 27 20 13 23 13 14 2 -20 -27 -26 -70 -10 -76 16 -6 16 -71 1 -107 -4 -11
-3 -23 4 -30 6 -6 11 -16 11 -21 0 -6 -5 -4 -10 4 -7 11 -10 5 -10 -22 0 -31
4 -38 20 -38 24 0 21 -22 28 215 2 49 5 66 12 55 14 -21 13 5 0 30 -9 16 -5
22 22 36 44 23 137 53 168 53 l25 1 0 -148z m658 113 c78 -31 160 -82 203
-126 l36 -37 -68 -123 c-87 -160 -87 -160 -101 -154 -9 3 -13 -5 -13 -23 -1
-40 -23 -62 -66 -68 -50 -7 -84 -24 -84 -41 0 -8 -3 -12 -7 -10 -5 3 -7 58 -5
124 2 65 3 125 2 133 0 8 -1 93 -3 187 l-3 172 25 -5 c14 -4 52 -17 84 -29z
m-1093 -373 c26 -51 29 -66 20 -77 -8 -9 -8 -15 -2 -15 6 0 9 -6 7 -12 -10
-42 -19 -58 -31 -58 -18 0 -18 -16 0 -23 10 -4 14 -16 12 -34 -5 -39 -6 -41
-16 -18 -6 15 -9 16 -9 4 -1 -22 -37 -37 -106 -43 -85 -7 -90 -2 -71 72 25 93
70 195 119 265 24 35 32 29 77 -61z m1516 -47 c23 -49 51 -125 62 -167 20 -76
20 -78 1 -78 -15 0 -19 7 -19 35 0 19 -4 35 -10 35 -5 0 -10 -4 -10 -10 0 -5
-9 -1 -20 10 -23 23 -29 24 -50 10 -12 -8 -11 -10 6 -10 25 0 44 -18 44 -42 0
-10 4 -18 9 -18 5 0 8 -11 6 -25 -1 -17 5 -31 19 -40 29 -21 42 -19 23 3 -10
10 -17 23 -17 28 0 5 6 0 12 -11 11 -19 11 -19 18 0 23 63 24 -217 1 -305 -5
-19 -12 -51 -15 -70 l-6 -35 -67 3 c-98 5 -119 31 -91 108 10 27 9 37 -7 60
l-18 27 -13 -24 c-7 -13 -13 -18 -14 -11 0 18 -55 98 -100 147 -20 22 -41 56
-47 76 -9 32 -7 41 22 90 l31 54 70 1 c117 2 138 4 131 10 -3 3 -41 6 -84 5
-43 0 -85 4 -93 9 -10 6 -11 10 -2 10 6 0 12 7 12 16 0 15 99 201 124 233 15
19 40 -14 92 -124z m-1446 -75 c0 -3 -8 -10 -18 -16 -16 -10 -17 -8 -14 24 4
33 6 34 18 17 8 -10 14 -21 14 -25z m26 -67 c-2 -2 7 -15 20 -28 13 -13 26
-36 30 -52 4 -15 14 -33 22 -39 11 -8 12 -13 4 -18 -7 -4 -12 -20 -12 -35 0
-18 -13 -39 -41 -66 l-40 -40 1 50 c1 28 -2 94 -6 148 -6 89 -5 97 10 91 9 -4
15 -8 12 -11z m994 -39 c0 -20 -29 -30 -43 -15 -9 10 -8 16 7 26 21 16 36 11
36 -11z m-78 -13 c15 -18 15 -21 -3 -37 -18 -17 -19 -16 -19 19 0 21 1 37 3
37 1 0 10 -9 19 -19z m-985 -23 c-3 -8 -6 -5 -6 6 -1 11 2 17 5 13 3 -3 4 -12
1 -19z m403 -3 c0 -8 -4 -15 -10 -15 -5 0 -7 7 -4 15 4 8 8 15 10 15 2 0 4 -7
4 -15z m-602 -64 c-2 -19 3 -24 12 -11 5 8 12 12 15 8 4 -3 -1 -18 -10 -31
-18 -28 -13 -80 11 -129 8 -15 13 -31 12 -35 -1 -4 1 -18 6 -30 6 -18 15 -23
41 -23 33 0 42 11 51 60 2 8 10 39 18 68 21 75 8 103 -29 62 -22 -24 -65 -27
-65 -4 0 8 -4 13 -9 9 -5 -3 -12 -1 -16 5 -3 5 -2 10 3 10 16 0 24 33 10 42
-9 5 -4 8 14 8 22 0 26 -4 21 -17 -5 -12 -2 -15 9 -11 9 4 21 1 27 -5 16 -16
26 0 11 18 -10 13 -9 15 9 15 18 0 21 -4 16 -21 -6 -18 -4 -20 13 -15 17 6 19
3 15 -30 -3 -33 -2 -36 12 -24 8 7 15 9 15 4 0 -4 7 1 15 12 13 17 14 17 15 1
0 -9 -9 -25 -20 -34 -11 -10 -20 -27 -21 -38 0 -20 0 -20 -9 0 -7 16 -9 11 -9
-20 0 -28 3 -34 8 -21 7 18 8 18 14 2 4 -10 1 -19 -8 -22 -10 -4 -13 -14 -9
-33 6 -25 6 -25 -10 -6 -16 20 -16 20 -31 1 -18 -24 -19 -43 -2 -77 15 -27 9
-57 -14 -76 -10 -8 -149 -24 -149 -17 0 6 -23 124 -27 138 -3 12 -1 16 6 12 6
-4 11 0 11 9 0 9 -4 14 -9 11 -18 -12 -29 150 -15 221 5 25 10 29 30 25 13 -2
23 -7 22 -11z m732 -221 c-7 -14 -9 -40 -5 -71 6 -41 4 -48 -8 -43 -25 9 -26
90 -2 124 22 32 33 24 15 -10z m25 -161 c10 -2 27 -19 38 -37 l19 -32 -62 0
c-54 0 -61 2 -50 15 7 8 10 24 7 36 -3 11 -3 28 0 36 6 14 7 14 17 1 6 -9 20
-17 31 -19z m265 -24 l0 -45 -55 0 c-30 0 -55 3 -55 6 0 17 44 64 60 64 10 0
22 5 25 10 14 23 25 7 25 -35z m-905 -154 c3 -11 17 -26 30 -35 31 -20 32 -51
3 -67 -20 -11 -25 -8 -53 24 -16 19 -38 49 -48 66 l-18 31 40 0 c30 0 41 -5
46 -19z m1560 -8 c-54 -84 -71 -102 -87 -97 -10 3 -18 1 -18 -5 0 -6 5 -11 11
-11 8 0 8 -5 -1 -15 -7 -8 -17 -12 -22 -9 -6 4 -6 9 2 14 9 6 8 10 -4 17 -25
14 -12 53 30 94 25 25 37 30 45 22 9 -9 15 -8 26 3 25 24 36 15 18 -13z
m-1011 -280 c-4 -53 -7 -109 -8 -123 -1 -24 -3 -25 -75 -25 -45 0 -76 4 -78
11 -2 6 7 10 19 10 14 -1 23 5 23 14 0 8 -9 15 -20 15 -11 0 -23 7 -27 15 -9
21 -10 160 0 161 4 0 19 2 35 4 20 3 27 -1 28 -13 1 -16 2 -16 6 0 3 12 18 18
51 21 26 2 48 4 50 5 2 1 0 -42 -4 -95z m487 68 c1 -15 2 -15 6 1 3 11 12 15
31 13 15 -2 31 -4 35 -4 4 -1 7 -43 6 -95 -2 -88 -4 -93 -20 -83 -14 9 -21 9
-30 0 -16 -16 -1 -36 22 -30 12 3 19 0 19 -9 0 -10 -17 -13 -77 -11 l-78 2 -2
45 c0 25 -4 75 -8 112 -3 38 -4 71 -1 76 2 4 25 6 50 4 34 -3 46 -8 47 -21z
m323 -12 c-9 -11 -19 -17 -21 -15 -8 7 21 45 30 39 4 -3 1 -14 -9 -24z m-1210
-5 c3 -8 2 -12 -4 -9 -6 3 -10 10 -10 16 0 14 7 11 14 -7z"/>
<path d="M520 1800 c0 -5 5 -10 11 -10 5 0 7 5 4 10 -3 6 -8 10 -11 10 -2 0
-4 -4 -4 -10z"/>
<path d="M540 1760 c-9 -6 -10 -10 -3 -10 6 0 15 5 18 10 8 12 4 12 -15 0z"/>
<path d="M690 1639 c0 -5 5 -7 10 -4 6 3 10 8 10 11 0 2 -4 4 -10 4 -5 0 -10
-5 -10 -11z"/>
<path d="M594 1350 c0 -11 6 -22 14 -25 15 -5 27 19 17 35 -11 17 -31 11 -31
-10z"/>
<path d="M1280 1870 c0 -11 2 -20 4 -20 2 0 6 9 9 20 3 11 1 20 -4 20 -5 0 -9
-9 -9 -20z"/>
<path d="M1280 1790 c0 -5 7 -7 15 -4 8 4 15 8 15 10 0 2 -7 4 -15 4 -8 0 -15
-4 -15 -10z"/>
<path d="M1426 1723 c-10 -61 -7 -83 9 -83 22 0 28 23 21 75 -9 55 -21 58 -30
8z"/>
<path d="M1345 1719 c-11 -17 1 -21 15 -4 8 9 8 15 2 15 -6 0 -14 -5 -17 -11z"/>
<path d="M1365 1700 c-3 -5 -1 -10 4 -10 6 0 11 5 11 10 0 6 -2 10 -4 10 -3 0
-8 -4 -11 -10z"/>
<path d="M1402 1670 c0 -14 2 -19 5 -12 2 6 2 18 0 25 -3 6 -5 1 -5 -13z"/>
<path d="M1353 1663 c-7 -2 -13 -9 -13 -15 0 -14 43 -6 48 10 4 12 -12 15 -35
5z"/>
<path d="M1420 1619 c0 -6 -4 -7 -10 -4 -18 11 -10 -12 11 -31 11 -10 18 -26
16 -36 -4 -15 -2 -16 14 -7 20 10 26 39 9 39 -5 0 -10 9 -10 19 0 10 -7 21
-15 25 -8 3 -15 1 -15 -5z"/>
<path d="M1355 1590 c3 -5 8 -10 11 -10 2 0 4 5 4 10 0 6 -5 10 -11 10 -5 0
-7 -4 -4 -10z"/>
<path d="M1310 1505 c0 -8 5 -15 10 -15 6 0 10 7 10 15 0 8 -4 15 -10 15 -5 0
-10 -7 -10 -15z"/>
<path d="M1340 1490 c0 -5 7 -7 15 -4 8 4 15 8 15 10 0 2 -7 4 -15 4 -8 0 -15
-4 -15 -10z"/>
<path d="M1320 1460 c0 -5 5 -10 10 -10 6 0 10 5 10 10 0 6 -4 10 -10 10 -5 0
-10 -4 -10 -10z"/>
<path d="M1315 1399 c-6 -19 0 -38 9 -28 10 12 16 49 7 49 -5 0 -13 -9 -16
-21z"/>
<path d="M1355 1360 c-3 -5 -1 -10 4 -10 6 0 11 5 11 10 0 6 -2 10 -4 10 -3 0
-8 -4 -11 -10z"/>
<path d="M113 1343 c4 -3 2 -12 -4 -20 -16 -18 18 -18 36 1 12 12 12 15 -1 20
-21 8 -39 8 -31 -1z"/>
<path d="M226 1341 c-3 -5 1 -14 9 -21 13 -10 15 -9 15 9 0 21 -14 28 -24 12z"/>
<path d="M173 1309 c14 -8 22 -8 30 0 8 8 3 11 -18 11 -26 -1 -28 -2 -12 -11z"/>
<path d="M1795 1310 c-3 -5 3 -10 14 -10 12 0 21 5 21 10 0 6 -6 10 -14 10 -8
0 -18 -4 -21 -10z"/>
<path d="M1610 1209 c0 -4 5 -11 10 -14 6 -4 8 -16 4 -27 -4 -14 -3 -18 6 -13
6 4 20 -2 31 -13 11 -13 15 -23 9 -27 -11 -7 -6 -37 15 -100 7 -22 16 -52 19
-67 5 -24 11 -28 41 -28 26 0 35 5 41 23 5 12 7 26 6 30 -1 4 4 20 12 35 21
42 30 108 15 118 -8 4 -18 -1 -27 -14 -10 -15 -25 -22 -46 -22 -26 0 -37 8
-63 47 -30 43 -31 48 -17 64 14 16 13 17 -20 16 -20 -1 -36 -4 -36 -8z"/>
<path d="M1712 1189 c-7 -12 -12 -22 -10 -23 2 -1 17 -6 35 -13 29 -10 31 -9
29 11 -5 48 -32 61 -54 25z"/>
<path d="M1815 1000 c-9 -14 -6 -17 20 -22 13 -2 20 3 20 12 0 18 -30 26 -40
10z"/>
<path d="M1804 924 c-4 -21 -2 -46 6 -62 11 -26 12 -26 26 -7 17 22 18 59 4
86 -16 29 -28 23 -36 -17z"/>
<path d="M80 1058 c0 -12 3 -18 7 -14 11 10 12 36 2 36 -5 0 -9 -10 -9 -22z"/>
<path d="M101 942 c-15 -28 -14 -64 3 -87 13 -18 14 -18 25 3 15 28 14 64 -3
87 -13 18 -14 18 -25 -3z"/>
<path d="M170 859 c0 -5 5 -7 10 -4 6 3 10 8 10 11 0 2 -4 4 -10 4 -5 0 -10
-5 -10 -11z"/>
<path d="M210 851 c0 -5 7 -11 15 -15 9 -3 15 0 15 9 0 8 -7 15 -15 15 -8 0
-15 -4 -15 -9z"/>
<path d="M101 804 c0 -11 3 -14 6 -6 3 7 2 16 -1 19 -3 4 -6 -2 -5 -13z"/>
<path d="M727 386 c-8 -20 16 -39 30 -25 14 14 6 39 -12 39 -7 0 -15 -6 -18
-14z"/>
<path d="M670 341 c0 -25 6 -27 13 -6 4 8 2 17 -3 20 -6 4 -10 -3 -10 -14z"/>
<path d="M670 259 c0 -11 4 -18 10 -14 5 3 7 12 3 20 -7 21 -13 19 -13 -6z"/>
<path d="M686 230 c-11 -3 -15 -9 -10 -13 10 -6 42 9 34 16 -3 3 -14 1 -24 -3z"/>
<path d="M1181 386 c-8 -10 -8 -16 2 -24 17 -14 42 2 34 22 -8 20 -21 20 -36
2z"/>
<path d="M1262 340 c0 -14 2 -19 5 -12 2 6 2 18 0 25 -3 6 -5 1 -5 -13z"/>
<path d="M1261 264 c0 -11 3 -14 6 -6 3 7 2 16 -1 19 -3 4 -6 -2 -5 -13z"/>
<path d="M1230 231 c0 -11 31 -24 39 -16 3 3 -1 10 -9 15 -19 12 -30 12 -30 1z"/>
<path d="M795 1633 c-3 -27 -8 -57 -10 -67 -2 -11 1 -26 7 -33 6 -8 7 -18 2
-26 -5 -7 -1 -4 9 6 14 16 17 17 17 3 0 -9 4 -16 8 -16 10 0 16 133 7 160 -12
37 -33 22 -40 -27z"/>
<path d="M1106 1618 c-3 -35 -5 -75 -3 -90 2 -30 17 -39 17 -11 0 15 2 14 15
-3 21 -28 18 -37 -10 -32 -17 4 -25 1 -25 -8 0 -8 6 -11 15 -8 8 4 15 1 15 -5
0 -6 -4 -11 -10 -11 -5 0 -10 -13 -10 -30 0 -16 4 -30 10 -30 5 0 11 -56 13
-132 3 -129 3 -128 5 39 1 94 6 174 11 177 9 6 5 156 -5 189 -3 9 -11 17 -19
17 -9 0 -15 -19 -19 -62z"/>
<path d="M810 1480 c-27 -9 -26 -10 8 -14 13 -2 22 3 22 11 0 7 -1 13 -2 12
-2 -1 -14 -5 -28 -9z"/>
<path d="M800 1440 c0 -5 9 -10 20 -10 11 0 20 5 20 10 0 6 -9 10 -20 10 -11
0 -20 -4 -20 -10z"/>
<path d="M805 1409 c-10 -15 1 -23 20 -15 9 3 13 10 10 16 -8 13 -22 13 -30
-1z"/>
<path d="M804 1255 c0 -71 1 -99 3 -62 2 37 2 96 0 130 -2 34 -3 4 -3 -68z"/>
<path d="M834 1255 c0 -71 1 -99 3 -62 2 37 2 96 0 130 -2 34 -3 4 -3 -68z"/>
<path d="M504 968 l-29 -33 33 29 c30 28 37 36 29 36 -2 0 -16 -15 -33 -32z"/>
<path d="M1420 975 c13 -14 26 -25 28 -25 3 0 -5 11 -18 25 -13 14 -26 25 -28
25 -3 0 5 -11 18 -25z"/>
<path d="M412 660 c0 -14 2 -19 5 -12 2 6 2 18 0 25 -3 6 -5 1 -5 -13z"/>
<path d="M500 476 c0 -2 8 -10 18 -17 15 -13 16 -12 3 4 -13 16 -21 21 -21 13z"/>
<path d="M1419 463 c-13 -16 -12 -17 4 -4 16 13 21 21 13 21 -2 0 -10 -8 -17
-17z"/>
<path d="M450 124 c0 -45 24 -42 28 4 2 24 -1 32 -12 32 -12 0 -16 -10 -16
-36z"/>
<path d="M1464 128 c1 -45 26 -49 26 -4 0 24 -5 36 -13 36 -9 0 -14 -11 -13
-32z"/>
</g>
</svg>
